<svg width="73" height="22" viewBox="0 0 73 22" fill="none" xmlns="http://www.w3.org/2000/svg">
<rect width="72.9226" height="21.1711" rx="5" fill="white"/>
<path d="M19.408 7.792H26.592V8.76H19.408V7.792ZM22.312 8.664H23.344V14.704H22.312V8.664ZM22.856 10.6L23.512 9.84C24.384 10.272 25.64 10.968 26.256 11.464L25.544 12.344C24.976 11.84 23.76 11.088 22.856 10.6ZM32.824 7.704L33.52 7.24C33.88 7.568 34.328 8.024 34.536 8.344L33.792 8.856C33.608 8.536 33.176 8.048 32.824 7.704ZM27.36 8.912H34.648V9.696H27.36V8.912ZM27.728 7.752H31.216V8.48H27.728V7.752ZM27.584 10.048H31.36V10.72H27.584V10.048ZM27.472 13.32H31.352V14.016H27.472V13.32ZM29.024 7.208H29.936V9.64H29.024V7.208ZM28.4 12.24V12.544H30.544V12.24H28.4ZM28.4 11.496V11.792H30.544V11.496H28.4ZM27.728 11.024H31.248V13.008H27.728V11.024ZM29.12 11.32H29.816V12.84H29.888V14.728H29.048V12.84H29.12V11.32ZM29.04 9.64H29.904V11.2H29.04V9.64ZM31.592 7.216H32.56C32.472 10.64 32.968 13.784 33.72 13.784C33.896 13.784 33.968 13.4 34.016 12.472C34.216 12.68 34.536 12.888 34.776 12.976C34.64 14.368 34.344 14.72 33.64 14.72C31.968 14.72 31.6 11.04 31.592 7.216ZM33.552 10.04L34.4 10.304C33.784 12.256 32.752 13.752 31.272 14.736C31.136 14.504 30.856 14.2 30.624 14.008C32.016 13.208 33.016 11.816 33.552 10.04ZM41.2941 14L40.8781 12.64H38.7981L38.3821 14H37.0781L39.0941 8.264H40.5741L42.5981 14H41.2941ZM40.1741 10.296C40.1475 10.2053 40.1128 10.0907 40.0701 9.952C40.0275 9.81333 39.9848 9.672 39.9421 9.528C39.8995 9.384 39.8648 9.25867 39.8381 9.152C39.8115 9.25867 39.7741 9.392 39.7261 9.552C39.6835 9.70667 39.6408 9.856 39.5981 10C39.5608 10.1387 39.5315 10.2373 39.5101 10.296L39.1021 11.624H40.5901L40.1741 10.296ZM45.1456 8.288C45.8816 8.288 46.4176 8.448 46.7536 8.768C47.0949 9.08267 47.2656 9.51733 47.2656 10.072C47.2656 10.3227 47.2282 10.5627 47.1536 10.792C47.0789 11.016 46.9536 11.2187 46.7776 11.4C46.6069 11.576 46.3802 11.7147 46.0976 11.816C45.8149 11.9173 45.4656 11.968 45.0496 11.968H44.5296V14H43.3216V8.288H45.1456ZM45.0816 9.28H44.5296V10.976H44.9296C45.1589 10.976 45.3562 10.9467 45.5216 10.888C45.6869 10.8293 45.8149 10.736 45.9056 10.608C45.9962 10.48 46.0416 10.3147 46.0416 10.112C46.0416 9.82933 45.9642 9.62133 45.8096 9.488C45.6549 9.34933 45.4122 9.28 45.0816 9.28ZM52.937 14H51.561L50.065 11.592L49.553 11.96V14H48.345V8.288H49.553V10.904C49.633 10.792 49.713 10.68 49.793 10.568C49.873 10.456 49.953 10.344 50.033 10.232L51.577 8.288H52.921L50.929 10.816L52.937 14Z" fill="#F5A903"/>
</svg>
