<svg width="73" height="22" viewBox="0 0 73 22" fill="none" xmlns="http://www.w3.org/2000/svg">
<rect width="72.9226" height="21.1711" fill="white"/>
<path d="M13.456 11.088C13.456 11.728 13.3333 12.264 13.088 12.696C12.8427 13.128 12.4853 13.4533 12.016 13.672C11.552 13.8907 10.992 14 10.336 14H8.72V8.288H10.512C11.1093 8.288 11.6267 8.39467 12.064 8.608C12.5067 8.82133 12.848 9.136 13.088 9.552C13.3333 9.96267 13.456 10.4747 13.456 11.088ZM12.2 11.12C12.2 10.6987 12.1387 10.352 12.016 10.08C11.8933 9.808 11.7093 9.608 11.464 9.48C11.224 9.34667 10.928 9.28 10.576 9.28H9.928V13H10.448C11.04 13 11.48 12.8427 11.768 12.528C12.056 12.2133 12.2 11.744 12.2 11.12ZM18.5139 11.808C18.5139 12.1707 18.4632 12.4933 18.3619 12.776C18.2659 13.0587 18.1245 13.2987 17.9379 13.496C17.7565 13.688 17.5352 13.8347 17.2739 13.936C17.0125 14.032 16.7165 14.08 16.3859 14.08C16.0819 14.08 15.7992 14.032 15.5379 13.936C15.2819 13.8347 15.0605 13.688 14.8739 13.496C14.6872 13.2987 14.5405 13.0587 14.4339 12.776C14.3325 12.4933 14.2819 12.1707 14.2819 11.808C14.2819 11.3227 14.3672 10.9147 14.5379 10.584C14.7085 10.248 14.9539 9.992 15.2739 9.816C15.5939 9.64 15.9725 9.552 16.4099 9.552C16.8205 9.552 17.1832 9.64 17.4979 9.816C17.8125 9.992 18.0605 10.248 18.2419 10.584C18.4232 10.9147 18.5139 11.3227 18.5139 11.808ZM15.4979 11.808C15.4979 12.096 15.5272 12.3387 15.5859 12.536C15.6499 12.728 15.7485 12.8747 15.8819 12.976C16.0152 13.072 16.1885 13.12 16.4019 13.12C16.6152 13.12 16.7859 13.072 16.9139 12.976C17.0472 12.8747 17.1432 12.728 17.2019 12.536C17.2659 12.3387 17.2979 12.096 17.2979 11.808C17.2979 11.52 17.2659 11.28 17.2019 11.088C17.1432 10.896 17.0472 10.752 16.9139 10.656C16.7805 10.56 16.6072 10.512 16.3939 10.512C16.0792 10.512 15.8499 10.6213 15.7059 10.84C15.5672 11.0533 15.4979 11.376 15.4979 11.808ZM22.5988 12.472C22.5774 12.3813 22.5454 12.248 22.5028 12.072C22.4654 11.8907 22.4228 11.6987 22.3748 11.496C22.3268 11.288 22.2814 11.0987 22.2388 10.928C22.1961 10.752 22.1668 10.624 22.1508 10.544H22.1188C22.1028 10.624 22.0734 10.752 22.0308 10.928C21.9934 11.0987 21.9508 11.288 21.9028 11.496C21.8548 11.6987 21.8094 11.8907 21.7668 12.072C21.7241 12.2533 21.6921 12.392 21.6708 12.488L21.3188 14H20.0388L18.7988 9.632H19.9828L20.4868 11.568C20.5241 11.7013 20.5561 11.8613 20.5828 12.048C20.6148 12.2347 20.6441 12.416 20.6708 12.592C20.6974 12.7627 20.7161 12.8987 20.7268 13H20.7588C20.7641 12.9253 20.7748 12.8267 20.7908 12.704C20.8068 12.576 20.8254 12.4453 20.8468 12.312C20.8734 12.1787 20.8948 12.0587 20.9108 11.952C20.9321 11.84 20.9481 11.7653 20.9588 11.728L21.4948 9.632H22.8068L23.3188 11.728C23.3401 11.8027 23.3641 11.9227 23.3908 12.088C23.4228 12.2533 23.4494 12.4213 23.4708 12.592C23.4974 12.7627 23.5108 12.8987 23.5108 13H23.5428C23.5534 12.9093 23.5721 12.7787 23.5988 12.608C23.6254 12.432 23.6548 12.248 23.6868 12.056C23.7241 11.864 23.7614 11.7013 23.7988 11.568L24.3188 9.632H25.4868L24.2308 14H22.9348L22.5988 12.472ZM28.6743 9.552C29.1436 9.552 29.5196 9.68 29.8023 9.936C30.085 10.1867 30.2263 10.592 30.2263 11.152V14H29.0343V11.448C29.0343 11.1333 28.9783 10.8987 28.8663 10.744C28.7543 10.584 28.5756 10.504 28.3303 10.504C27.9676 10.504 27.7196 10.6293 27.5863 10.88C27.453 11.1253 27.3863 11.48 27.3863 11.944V14H26.1943V9.632H27.1063L27.2663 10.192H27.3303C27.4263 10.0427 27.5436 9.92267 27.6823 9.832C27.821 9.736 27.9756 9.66667 28.1463 9.624C28.317 9.576 28.493 9.552 28.6743 9.552ZM32.6441 14H31.4521V7.92H32.6441V14ZM37.8576 11.808C37.8576 12.1707 37.807 12.4933 37.7056 12.776C37.6096 13.0587 37.4683 13.2987 37.2816 13.496C37.1003 13.688 36.879 13.8347 36.6176 13.936C36.3563 14.032 36.0603 14.08 35.7296 14.08C35.4256 14.08 35.143 14.032 34.8816 13.936C34.6256 13.8347 34.4043 13.688 34.2176 13.496C34.031 13.2987 33.8843 13.0587 33.7776 12.776C33.6763 12.4933 33.6256 12.1707 33.6256 11.808C33.6256 11.3227 33.711 10.9147 33.8816 10.584C34.0523 10.248 34.2976 9.992 34.6176 9.816C34.9376 9.64 35.3163 9.552 35.7536 9.552C36.1643 9.552 36.527 9.64 36.8416 9.816C37.1563 9.992 37.4043 10.248 37.5856 10.584C37.767 10.9147 37.8576 11.3227 37.8576 11.808ZM34.8416 11.808C34.8416 12.096 34.871 12.3387 34.9296 12.536C34.9936 12.728 35.0923 12.8747 35.2256 12.976C35.359 13.072 35.5323 13.12 35.7456 13.12C35.959 13.12 36.1296 13.072 36.2576 12.976C36.391 12.8747 36.487 12.728 36.5456 12.536C36.6096 12.3387 36.6416 12.096 36.6416 11.808C36.6416 11.52 36.6096 11.28 36.5456 11.088C36.487 10.896 36.391 10.752 36.2576 10.656C36.1243 10.56 35.951 10.512 35.7376 10.512C35.423 10.512 35.1936 10.6213 35.0496 10.84C34.911 11.0533 34.8416 11.376 34.8416 11.808ZM40.6348 9.544C41.2214 9.544 41.6694 9.672 41.9788 9.928C42.2934 10.1787 42.4508 10.5653 42.4508 11.088V14H41.6188L41.3868 13.408H41.3548C41.2321 13.5627 41.1041 13.6907 40.9708 13.792C40.8428 13.8933 40.6934 13.9653 40.5228 14.008C40.3574 14.056 40.1521 14.08 39.9068 14.08C39.6508 14.08 39.4188 14.032 39.2108 13.936C39.0081 13.8347 38.8481 13.6827 38.7308 13.48C38.6134 13.272 38.5548 13.0107 38.5548 12.696C38.5548 12.232 38.7174 11.8907 39.0428 11.672C39.3681 11.448 39.8561 11.3253 40.5068 11.304L41.2668 11.28V11.088C41.2668 10.8587 41.2054 10.6907 41.0828 10.584C40.9654 10.4773 40.8001 10.424 40.5868 10.424C40.3734 10.424 40.1654 10.456 39.9628 10.52C39.7601 10.5787 39.5574 10.6533 39.3548 10.744L38.9628 9.936C39.1974 9.81333 39.4561 9.71733 39.7388 9.648C40.0268 9.57867 40.3254 9.544 40.6348 9.544ZM40.8028 11.992C40.4188 12.0027 40.1521 12.072 40.0028 12.2C39.8534 12.328 39.7788 12.496 39.7788 12.704C39.7788 12.8853 39.8321 13.016 39.9388 13.096C40.0454 13.1707 40.1841 13.208 40.3548 13.208C40.6108 13.208 40.8268 13.1333 41.0028 12.984C41.1788 12.8293 41.2668 12.6133 41.2668 12.336V11.976L40.8028 11.992ZM45.0549 14.08C44.5695 14.08 44.1722 13.8907 43.8629 13.512C43.5589 13.128 43.4069 12.5653 43.4069 11.824C43.4069 11.0773 43.5615 10.512 43.8709 10.128C44.1802 9.744 44.5855 9.552 45.0869 9.552C45.2949 9.552 45.4789 9.58133 45.6389 9.64C45.7989 9.69333 45.9349 9.768 46.0469 9.864C46.1642 9.96 46.2629 10.0693 46.3429 10.192H46.3829C46.3669 10.1067 46.3482 9.984 46.3269 9.824C46.3055 9.65867 46.2949 9.49067 46.2949 9.32V7.92H47.4869V14H46.5749L46.3429 13.432H46.2949C46.2202 13.5493 46.1242 13.6587 46.0069 13.76C45.8949 13.856 45.7615 13.9333 45.6069 13.992C45.4522 14.0507 45.2682 14.08 45.0549 14.08ZM45.4709 13.128C45.8015 13.128 46.0335 13.032 46.1669 12.84C46.3002 12.6427 46.3695 12.3493 46.3749 11.96V11.832C46.3749 11.4053 46.3082 11.08 46.1749 10.856C46.0469 10.632 45.8069 10.52 45.4549 10.52C45.1935 10.52 44.9882 10.6347 44.8389 10.864C44.6895 11.088 44.6149 11.4133 44.6149 11.84C44.6149 12.2667 44.6895 12.5893 44.8389 12.808C44.9882 13.0213 45.1989 13.128 45.4709 13.128ZM54.4035 14L53.9875 12.64H51.9075L51.4915 14H50.1875L52.2035 8.264H53.6835L55.7075 14H54.4035ZM53.2835 10.296C53.2568 10.2053 53.2222 10.0907 53.1795 9.952C53.1368 9.81333 53.0942 9.672 53.0515 9.528C53.0088 9.384 52.9742 9.25867 52.9475 9.152C52.9208 9.25867 52.8835 9.392 52.8355 9.552C52.7928 9.70667 52.7502 9.856 52.7075 10C52.6702 10.1387 52.6408 10.2373 52.6195 10.296L52.2115 11.624H53.6995L53.2835 10.296ZM58.2549 8.288C58.9909 8.288 59.5269 8.448 59.8629 8.768C60.2043 9.08267 60.3749 9.51733 60.3749 10.072C60.3749 10.3227 60.3376 10.5627 60.2629 10.792C60.1883 11.016 60.0629 11.2187 59.8869 11.4C59.7163 11.576 59.4896 11.7147 59.2069 11.816C58.9243 11.9173 58.5749 11.968 58.1589 11.968H57.6389V14H56.4309V8.288H58.2549ZM58.1909 9.28H57.6389V10.976H58.0389C58.2683 10.976 58.4656 10.9467 58.6309 10.888C58.7963 10.8293 58.9243 10.736 59.0149 10.608C59.1056 10.48 59.1509 10.3147 59.1509 10.112C59.1509 9.82933 59.0736 9.62133 58.9189 9.488C58.7643 9.34933 58.5216 9.28 58.1909 9.28ZM66.0464 14H64.6704L63.1744 11.592L62.6624 11.96V14H61.4544V8.288H62.6624V10.904C62.7424 10.792 62.8224 10.68 62.9024 10.568C62.9824 10.456 63.0624 10.344 63.1424 10.232L64.6864 8.288H66.0304L64.0384 10.816L66.0464 14Z" fill="#F5A903"/>
</svg>
