<svg width="73" height="22" viewBox="0 0 73 22" fill="none" xmlns="http://www.w3.org/2000/svg">
<rect width="72.9226" height="21.1711" fill="white"/>
<path d="M25.4006 5.10934C25.4006 5.56099 25.2689 5.92325 24.996 6.19142C24.6902 6.51134 24.295 6.6713 23.8057 6.6713C23.3164 6.6713 22.9401 6.51134 22.6107 6.18672C22.2814 5.86209 22.1215 5.46219 22.1215 4.98232C22.1215 4.50244 22.2861 4.10254 22.6107 3.77792C22.9401 3.45329 23.3353 3.29333 23.8057 3.29333C24.0363 3.29333 24.2621 3.34038 24.4691 3.42977C24.6808 3.51916 24.8502 3.64148 24.9772 3.79203L24.6902 4.07902C24.4738 3.82496 24.1821 3.69323 23.801 3.69323C23.4576 3.69323 23.1659 3.81085 22.9166 4.05079C22.6672 4.29073 22.5449 4.60124 22.5449 4.98702C22.5449 5.37281 22.6672 5.68331 22.9166 5.92325C23.1659 6.16319 23.4623 6.28081 23.801 6.28081C24.1633 6.28081 24.4644 6.15849 24.7043 5.91855C24.8596 5.76329 24.9537 5.54217 24.9772 5.25989H23.801V4.8694H25.3724C25.3865 4.95409 25.3959 5.03407 25.3959 5.11405L25.4006 5.10934Z" fill="#F5A903" stroke="white" stroke-width="0.2" stroke-miterlimit="10"/>
<path d="M27.8941 3.75439H26.4168V4.78001H27.7482V5.1705H26.4168V6.19612H27.8941V6.59602H26.0028V3.35449H27.8941V3.75439Z" fill="#F5A903" stroke="white" stroke-width="0.2" stroke-miterlimit="10"/>
<path d="M29.6489 6.60078H29.2302V3.75915H28.3269V3.35925H30.5522V3.75915H29.6489V6.60078Z" fill="#F5A903" stroke="white" stroke-width="0.2" stroke-miterlimit="10"/>
<path d="M32.1659 6.60078V3.35925H32.5799V6.60078H32.1659Z" fill="#F5A903" stroke="white" stroke-width="0.2" stroke-miterlimit="10"/>
<path d="M34.4289 6.60078H34.0102V3.75915H33.1069V3.35925H35.3323V3.75915H34.4289V6.60078Z" fill="#F5A903" stroke="white" stroke-width="0.2" stroke-miterlimit="10"/>
<path d="M39.5476 6.18201C39.2277 6.51134 38.8325 6.6713 38.3574 6.6713C37.8822 6.6713 37.487 6.50663 37.1671 6.18201C36.8471 5.85268 36.6919 5.45278 36.6919 4.98232C36.6919 4.51185 36.8519 4.10725 37.1671 3.78262C37.487 3.45329 37.8822 3.29333 38.3574 3.29333C38.8325 3.29333 39.223 3.458 39.5429 3.78733C39.8629 4.11665 40.0228 4.51655 40.0228 4.98702C40.0228 5.45749 39.8629 5.86209 39.5476 6.18672V6.18201ZM37.4776 5.90914C37.7175 6.15378 38.0092 6.2714 38.3574 6.2714C38.7055 6.2714 38.9972 6.14908 39.2371 5.90914C39.4771 5.6645 39.5994 5.35399 39.5994 4.97761C39.5994 4.60124 39.4771 4.29073 39.2371 4.04608C38.9972 3.80144 38.7055 3.68382 38.3574 3.68382C38.0092 3.68382 37.7175 3.80615 37.4776 4.04608C37.2376 4.29073 37.12 4.60124 37.12 4.97761C37.12 5.35399 37.2423 5.6645 37.4776 5.90914Z" fill="#F5A903" stroke="white" stroke-width="0.2" stroke-miterlimit="10"/>
<path d="M40.6108 6.60078V3.35925H41.1189L42.695 5.88096H42.7138L42.695 5.25524V3.35925H43.1137V6.60078H42.6809L41.0343 3.95675H41.0154L41.0343 4.58247V6.60078H40.6203H40.6108Z" fill="#F5A903" stroke="white" stroke-width="0.2" stroke-miterlimit="10"/>
<path d="M36.5931 11.3242C35.3229 11.3242 34.2878 12.2886 34.2878 13.62C34.2878 14.9515 35.3229 15.9159 36.5931 15.9159C37.8634 15.9159 38.8984 14.9421 38.8984 13.62C38.8984 12.298 37.8634 11.3242 36.5931 11.3242ZM36.5931 15.0126C35.8968 15.0126 35.2946 14.4387 35.2946 13.62C35.2946 12.8014 35.8968 12.2275 36.5931 12.2275C37.2894 12.2275 37.8916 12.792 37.8916 13.62C37.8916 14.4481 37.2894 15.0126 36.5931 15.0126ZM31.5638 11.3242C30.2935 11.3242 29.2585 12.2886 29.2585 13.62C29.2585 14.9515 30.2935 15.9159 31.5638 15.9159C32.8341 15.9159 33.8691 14.9421 33.8691 13.62C33.8691 12.298 32.8341 11.3242 31.5638 11.3242ZM31.5638 15.0126C30.8675 15.0126 30.2653 14.4387 30.2653 13.62C30.2653 12.8014 30.8675 12.2275 31.5638 12.2275C32.2601 12.2275 32.8623 12.792 32.8623 13.62C32.8623 14.4481 32.2601 15.0126 31.5638 15.0126ZM25.5794 12.0299V13.0037H27.913C27.8424 13.5542 27.6589 13.9541 27.3813 14.2316C27.0426 14.5704 26.511 14.9468 25.5794 14.9468C24.1445 14.9468 23.0201 13.7894 23.0201 12.3545C23.0201 10.9196 24.1445 9.7622 25.5794 9.7622C26.3557 9.7622 26.9203 10.068 27.339 10.4585L28.0259 9.77161C27.4425 9.21646 26.6662 8.78833 25.5794 8.78833C23.6129 8.78833 21.9615 10.3879 21.9615 12.3545C21.9615 14.321 23.6129 15.9206 25.5794 15.9206C26.6427 15.9206 27.4425 15.5725 28.0682 14.9185C28.7128 14.274 28.9104 13.3707 28.9104 12.6368C28.9104 12.4109 28.8915 12.2039 28.8586 12.0299H25.5794ZM50.0532 12.7873C49.8603 12.2745 49.2769 11.3242 48.0867 11.3242C46.8964 11.3242 45.9178 12.2557 45.9178 13.62C45.9178 14.9091 46.8917 15.9159 48.1996 15.9159C49.2534 15.9159 49.8603 15.2714 50.1144 14.8997L49.3334 14.3775C49.0746 14.7586 48.7171 15.0126 48.2043 15.0126C47.6915 15.0126 47.3245 14.7774 47.0893 14.3163L50.1614 13.0461L50.0579 12.7826L50.0532 12.7873ZM46.9199 13.5542C46.8917 12.665 47.6068 12.2133 48.1196 12.2133C48.5195 12.2133 48.8582 12.4156 48.9711 12.7026L46.9152 13.5542H46.9199ZM44.4217 15.7842H45.4332V9.03297H44.4217V15.7842ZM42.7704 11.8417H42.7374C42.5116 11.5735 42.0741 11.3289 41.5283 11.3289C40.3804 11.3289 39.3265 12.3404 39.3265 13.6342C39.3265 14.9279 40.3804 15.9206 41.5283 15.9206C42.0788 15.9206 42.5116 15.676 42.7374 15.3984H42.7704V15.7277C42.7704 16.6075 42.2999 17.078 41.5424 17.078C40.9261 17.078 40.5403 16.6357 40.3851 16.2594L39.5053 16.6263C39.7594 17.2332 40.4274 17.986 41.5424 17.986C42.728 17.986 43.7254 17.2897 43.7254 15.5913V11.4653H42.7704V11.8417ZM41.613 15.0173C40.9167 15.0173 40.3333 14.434 40.3333 13.6342C40.3333 12.8344 40.9167 12.2322 41.613 12.2322C42.3093 12.2322 42.8409 12.8249 42.8409 13.6342C42.8409 14.4434 42.2999 15.0173 41.613 15.0173ZM54.7814 9.02827H52.3679V15.7795H53.3747V13.2201H54.7814C55.8964 13.2201 56.9973 12.4109 56.9973 11.1219C56.9973 9.83277 55.9011 9.02356 54.7814 9.02356V9.02827ZM54.8097 12.2839H53.3747V9.96921H54.8097C55.5624 9.96921 55.9905 10.5949 55.9905 11.1266C55.9905 11.6582 55.5624 12.2839 54.8097 12.2839ZM61.0387 11.3147C60.3094 11.3147 59.552 11.6347 59.2415 12.3498L60.1354 12.7214C60.3282 12.3498 60.6811 12.2275 61.0575 12.2275C61.5797 12.2275 62.1066 12.538 62.116 13.0978V13.1684C61.9325 13.0649 61.5421 12.9096 61.0669 12.9096C60.1024 12.9096 59.1191 13.4413 59.1191 14.4292C59.1191 15.3325 59.9095 15.9159 60.794 15.9159C61.4715 15.9159 61.8432 15.6101 62.0784 15.2573H62.1113V15.7795H63.0852V13.1919C63.0852 11.9922 62.1913 11.3242 61.0339 11.3242L61.0387 11.3147ZM60.9163 15.0173C60.587 15.0173 60.1259 14.8527 60.1259 14.4434C60.1259 13.9211 60.6999 13.7235 61.1939 13.7235C61.6362 13.7235 61.8432 13.8176 62.116 13.9494C62.036 14.5751 61.4997 15.0173 60.9163 15.0173ZM66.6325 11.4653L65.4752 14.3916H65.4422L64.2425 11.4653H63.1558L64.9529 15.5584L63.9273 17.8354H64.9765L67.7475 11.4653H66.6278H66.6325ZM57.5525 15.7842H58.5593V9.03297H57.5525V15.7842Z" fill="#F5A903"/>
<path d="M5.4244 3.64628C5.26914 3.81094 5.17505 4.0697 5.17505 4.40373V16.3489C5.17505 16.683 5.26914 16.9417 5.4244 17.1064L5.46203 17.144L12.1521 10.454V10.294L5.46674 3.60864L5.4291 3.64628H5.4244Z" fill="#F5A903"/>
<path d="M14.3868 12.6934L12.1567 10.4633V10.3034L14.3868 8.07336L14.4385 8.10159L17.0825 9.60239C17.8353 10.0305 17.8353 10.7315 17.0825 11.1643L14.4385 12.6651L14.3868 12.6934Z" fill="#F5A903"/>
<path d="M14.4386 12.6604L12.1568 10.3787L5.42444 17.1111C5.67379 17.3745 6.08309 17.4075 6.54886 17.144L14.4386 12.6604Z" fill="#F5A903"/>
<path d="M14.4386 8.09686L6.54886 3.6133C6.0878 3.34983 5.67379 3.38277 5.42444 3.64623L12.1568 10.3786L14.4386 8.09686Z" fill="#F5A903"/>
<path opacity="0.2" d="M14.3868 12.6134L6.5441 17.0687C6.10656 17.3181 5.71137 17.2993 5.46202 17.0734L5.41968 17.1158L5.45732 17.1534C5.70666 17.3792 6.10186 17.3981 6.53939 17.1487L14.4291 12.6652L14.3774 12.6134H14.3868Z" fill="#F5A903"/>
<path opacity="0.12" d="M5.4244 17.0358C5.26914 16.8711 5.17505 16.6124 5.17505 16.2783V16.3583C5.17505 16.6923 5.26914 16.9511 5.4244 17.1158L5.46674 17.0734L5.4244 17.0358Z" fill="#F5A903"/>
<path opacity="0.12" d="M17.0827 11.0797L14.3916 12.6087L14.4434 12.6604L17.0874 11.1596C17.4638 10.9432 17.6519 10.6609 17.6519 10.3787C17.619 10.6327 17.4261 10.8868 17.0874 11.0797H17.0827Z" fill="#F5A903"/>
<path opacity="0.25" d="M6.54882 3.69325L17.0826 9.67761C17.426 9.8705 17.6189 10.1246 17.6472 10.3786C17.6472 10.0963 17.459 9.81405 17.0826 9.59763L6.54882 3.61327C5.79607 3.18514 5.17505 3.5427 5.17505 4.40366V4.48364C5.17505 3.61798 5.79136 3.26042 6.54882 3.69325Z" fill="#F5A903"/>
</svg>
