<svg width="73" height="22" viewBox="0 0 73 22" fill="none" xmlns="http://www.w3.org/2000/svg">
<rect width="72.9226" height="21.1711" fill="white"/>
<path d="M17.3848 10.1621C17.3848 9.26824 17.8553 8.42139 18.6551 7.90388C18.1375 7.19817 17.3378 6.77475 16.4909 6.72771C15.597 6.63361 14.7031 7.29227 14.2327 7.29227C13.7622 7.29227 13.0565 6.77475 12.3037 6.77475C11.3158 6.8218 10.3748 7.38636 9.90435 8.23321C8.86932 10.021 9.62207 12.7027 10.6571 14.1611C11.1746 14.8668 11.7392 15.6666 12.4919 15.6666C13.2447 15.6196 13.527 15.1961 14.4208 15.1961C15.3147 15.1961 15.597 15.6666 16.3498 15.6666C17.1496 15.6666 17.6671 14.9609 18.1375 14.2082C18.5139 13.6906 18.7962 13.1261 18.9373 12.5145C17.9964 12.1381 17.3848 11.1972 17.3848 10.1621Z" fill="#F5A903"/>
<path d="M15.8792 5.78678C16.3027 5.26927 16.5379 4.56356 16.4908 3.90491C15.8322 3.95195 15.2206 4.28128 14.7501 4.7988C14.3267 5.31631 14.0915 5.92792 14.1385 6.63362C14.7972 6.63362 15.4558 6.3043 15.8792 5.78678Z" fill="#F5A903"/>
<path d="M26.8412 13.8789H24.3007L23.642 15.6667H22.5599L24.9593 8.93896H26.1355L28.5349 15.6667H27.4528L26.8412 13.8789ZM24.5359 13.032H26.5589L25.5709 10.0681H25.5239L24.5359 13.032Z" fill="#F5A903"/>
<path d="M33.8041 13.2202C33.8041 14.7257 33.0043 15.7137 31.7811 15.7137C31.1695 15.7607 30.5579 15.4314 30.2286 14.8669V17.2662H29.2406V10.7738H30.2286V11.5736C30.5579 11.009 31.1695 10.6797 31.7811 10.7267C32.9573 10.7267 33.8041 11.7147 33.8041 13.2202ZM32.7691 13.2202C32.7691 12.2322 32.2516 11.5736 31.4989 11.5736C30.7461 11.5736 30.2286 12.2322 30.2286 13.2202C30.2286 14.2082 30.7461 14.8669 31.4989 14.8669C32.2516 14.8669 32.7691 14.2082 32.7691 13.2202Z" fill="#F5A903"/>
<path d="M39.1674 13.2202C39.1674 14.7257 38.3676 15.7137 37.1444 15.7137C36.5328 15.7607 35.9212 15.4314 35.5919 14.8669V17.2662H34.6039V10.7738H35.5448V11.5736C35.8741 11.009 36.4858 10.6797 37.0974 10.7267C38.3676 10.7267 39.1674 11.7147 39.1674 13.2202ZM38.1324 13.2202C38.1324 12.2322 37.6149 11.5736 36.8621 11.5736C36.1094 11.5736 35.5919 12.2322 35.5919 13.2202C35.5919 14.2082 36.1094 14.8669 36.8621 14.8669C37.6149 14.8669 38.1324 14.2082 38.1324 13.2202Z" fill="#F5A903"/>
<path d="M42.743 13.7848C42.8371 14.4434 43.4487 14.8668 44.3426 14.8668C45.1894 14.8668 45.801 14.4434 45.801 13.8318C45.801 13.3143 45.4247 12.985 44.5778 12.7968L43.731 12.6086C42.5078 12.3263 41.9432 11.7147 41.9432 10.8208C41.9432 9.64465 42.9312 8.84485 44.3896 8.84485C45.801 8.84485 46.789 9.64465 46.789 10.8208H45.754C45.7069 10.1622 45.1424 9.73874 44.3426 9.73874C43.5428 9.73874 42.9782 10.1622 42.9782 10.7267C42.9782 11.1972 43.3546 11.4795 44.2014 11.7147L44.9542 11.9029C46.3186 12.2322 46.8831 12.7968 46.8831 13.7848C46.8831 15.055 45.8951 15.8078 44.2955 15.8078C42.79 15.8078 41.8021 15.055 41.755 13.8318L42.743 13.7848Z" fill="#F5A903"/>
<path d="M49.0003 9.6447V10.8209H49.9413V11.6207H49.0003V14.2553C49.0003 14.6787 49.1885 14.8669 49.6119 14.8669C49.706 14.8669 49.8472 14.8669 49.9413 14.8669V15.6667C49.7531 15.7137 49.5649 15.7137 49.3767 15.7137C48.3887 15.7137 48.0123 15.3374 48.0123 14.3964V11.5736H47.3066V10.7738H48.0123V9.59766H49.0003V9.6447Z" fill="#F5A903"/>
<path d="M50.4587 13.2202C50.4587 11.6676 51.3526 10.7267 52.764 10.7267C54.1754 10.7267 55.0693 11.7147 55.0693 13.2202C55.0693 14.7727 54.1754 15.7136 52.764 15.7136C51.3526 15.7136 50.4587 14.7727 50.4587 13.2202ZM54.0813 13.2202C54.0813 12.1851 53.6109 11.5265 52.764 11.5265C51.9172 11.5265 51.4467 12.1381 51.4467 13.2202C51.4467 14.3022 51.9172 14.9139 52.764 14.9139C53.6109 14.9139 54.0813 14.3022 54.0813 13.2202Z" fill="#F5A903"/>
<path d="M55.9632 10.7737H56.9041V11.6206C57.0453 11.1031 57.5157 10.7267 58.0803 10.7267C58.1744 10.7267 58.3155 10.7267 58.4096 10.7737V11.7147C58.2685 11.6676 58.1273 11.6676 57.9391 11.6676C57.3746 11.6676 56.9041 12.091 56.9041 12.6556C56.9041 12.7027 56.9041 12.7497 56.9041 12.7967V15.6666H55.9161L55.9632 10.7737Z" fill="#F5A903"/>
<path d="M63.0673 14.2552C62.9262 15.1491 62.0793 15.7607 60.9502 15.7607C59.5388 15.7607 58.6449 14.8198 58.6449 13.2672C58.6449 11.7147 59.5388 10.7267 60.9031 10.7267C62.2675 10.7267 63.1144 11.6676 63.1144 13.1261V13.4554H59.6799V13.5024C59.6329 14.2082 60.1504 14.8198 60.8561 14.8668C60.9031 14.8668 60.9502 14.8668 60.9972 14.8668C61.4677 14.9139 61.9382 14.6316 62.1264 14.1611L63.0673 14.2552ZM59.6799 12.7967H62.1264C62.1734 12.1381 61.6559 11.5735 60.9972 11.5735C60.9502 11.5735 60.9502 11.5735 60.9031 11.5735C60.2445 11.5265 59.6799 12.091 59.6799 12.7967Z" fill="#F5A903"/>
<path d="M24.3948 3.90496C25.1946 3.85791 25.8533 4.42247 25.9003 5.22227C25.9003 5.31636 25.9003 5.41046 25.9003 5.50455C25.9003 6.53958 25.3357 7.10414 24.3948 7.10414H23.2186V3.90496H24.3948ZM23.7361 6.68072H24.3478C24.9123 6.72777 25.3828 6.30435 25.4298 5.73978C25.4298 5.69274 25.4298 5.59864 25.4298 5.5516C25.5239 4.98704 25.1005 4.46952 24.583 4.42247C24.5359 4.42247 24.4418 4.42247 24.3948 4.42247H23.7832V6.68072H23.7361Z" fill="#F5A903"/>
<path d="M26.5119 5.92793C26.4649 5.31632 26.9353 4.75176 27.5469 4.65766C28.1586 4.61062 28.7231 5.08108 28.8172 5.69269C28.8172 5.78679 28.8172 5.83383 28.8172 5.92793C28.8643 6.53954 28.3938 7.1041 27.7822 7.19819C27.1706 7.24524 26.606 6.77477 26.5119 6.16316C26.5119 6.06907 26.5119 5.97497 26.5119 5.92793ZM28.2997 5.92793C28.2997 5.41041 28.0645 5.08108 27.641 5.08108C27.2176 5.08108 26.9824 5.41041 26.9824 5.92793C26.9824 6.44544 27.2176 6.77477 27.641 6.77477C28.0645 6.77477 28.2997 6.44544 28.2997 5.92793Z" fill="#F5A903"/>
<path d="M31.8282 7.15115H31.3106L30.8402 5.36337H30.7931L30.2756 7.15115H29.8051L29.1465 4.70471H29.617L30.0404 6.53954H30.0874L30.6049 4.70471H31.0754L31.5929 6.53954H31.64L32.0634 4.70471H32.5339L31.8282 7.15115Z" fill="#F5A903"/>
<path d="M33.0985 4.70476H33.569V5.08114H33.616C33.7572 4.79886 34.0394 4.61067 34.3217 4.65772C34.7451 4.61067 35.1215 4.94 35.1686 5.41047C35.1686 5.45751 35.1686 5.50456 35.1686 5.59865V7.1512H34.6981V5.69275C34.6981 5.31637 34.5099 5.12819 34.1806 5.12819C33.8513 5.12819 33.616 5.36342 33.616 5.6457C33.616 5.69275 33.616 5.69275 33.616 5.73979V7.1512H33.1456L33.0985 4.70476Z" fill="#F5A903"/>
<path d="M35.9213 3.76379H36.3917V7.15117H35.9213V3.76379Z" fill="#F5A903"/>
<path d="M37.0504 5.92793C37.0033 5.31632 37.4738 4.75176 38.0854 4.65766C38.697 4.61062 39.2616 5.08108 39.3557 5.69269C39.3557 5.78679 39.3557 5.83383 39.3557 5.92793C39.4027 6.53954 38.9322 7.1041 38.3206 7.19819C37.709 7.24524 37.1445 6.77477 37.0504 6.16316C37.0504 6.06907 37.0504 5.97497 37.0504 5.92793ZM38.8381 5.92793C38.8381 5.41041 38.6029 5.08108 38.1795 5.08108C37.7561 5.08108 37.5208 5.41041 37.5208 5.92793C37.5208 6.44544 37.7561 6.77477 38.1795 6.77477C38.6029 6.77477 38.8381 6.44544 38.8381 5.92793Z" fill="#F5A903"/>
<path d="M39.8731 6.44549C39.8731 6.02207 40.2025 5.73979 40.767 5.73979L41.4257 5.69275V5.50456C41.4257 5.26932 41.2375 5.08114 40.9082 5.08114C40.6259 5.08114 40.4377 5.17523 40.3907 5.36342H39.9202C39.9672 4.94 40.3436 4.65771 40.9082 4.65771C41.5198 4.65771 41.8491 4.94 41.8491 5.45751V7.10415H41.3786V6.77482H41.3316C41.1905 7.01006 40.9082 7.1512 40.5788 7.1512C40.1554 7.19824 39.8261 6.91596 39.7791 6.49254C39.8731 6.49254 39.8731 6.49254 39.8731 6.44549ZM41.4257 6.25731V6.06912L40.8141 6.11617C40.4848 6.11617 40.3436 6.25731 40.3436 6.44549C40.3436 6.68073 40.5318 6.77482 40.8141 6.77482C41.0964 6.82187 41.3786 6.58664 41.4257 6.25731Z" fill="#F5A903"/>
<path d="M42.5078 5.92795C42.5078 5.1752 42.8842 4.65768 43.4958 4.65768C43.8251 4.65768 44.1074 4.79882 44.2485 5.08111H44.2956V3.76379H44.7661V7.15117H44.2956V6.77479H44.2485C44.1074 7.05707 43.7781 7.19821 43.4958 7.19821C42.9312 7.19821 42.5078 6.6807 42.5078 5.92795ZM43.0253 5.92795C43.0253 6.44546 43.2606 6.77479 43.684 6.77479C44.1074 6.77479 44.3426 6.44546 44.3426 5.92795C44.3426 5.41043 44.1074 5.08111 43.684 5.08111C43.2606 5.08111 43.0253 5.41043 43.0253 5.92795Z" fill="#F5A903"/>
<path d="M46.7891 5.92793C46.7421 5.31632 47.2126 4.75176 47.8242 4.65766C48.4358 4.61062 49.0003 5.08108 49.0944 5.69269C49.0944 5.78679 49.0944 5.83383 49.0944 5.92793C49.1415 6.53954 48.671 7.1041 48.0594 7.19819C47.4478 7.29229 46.8832 6.77477 46.7891 6.16316C46.7891 6.06907 46.7891 5.97497 46.7891 5.92793ZM48.5769 5.92793C48.5769 5.41041 48.3417 5.08108 47.9183 5.08108C47.4948 5.08108 47.2596 5.41041 47.2596 5.92793C47.2596 6.44544 47.4948 6.77477 47.9183 6.77477C48.3417 6.77477 48.5769 6.44544 48.5769 5.92793Z" fill="#F5A903"/>
<path d="M49.7061 4.70476H50.1765V5.08114H50.2236C50.3647 4.79886 50.647 4.61067 50.9293 4.65772C51.3527 4.61067 51.7291 4.94 51.7761 5.41047C51.7761 5.45751 51.7761 5.50456 51.7761 5.59865V7.1512H51.3056V5.69275C51.3056 5.31637 51.1175 5.12819 50.7881 5.12819C50.4588 5.12819 50.2236 5.36342 50.2236 5.6457C50.2236 5.69275 50.2236 5.69275 50.2236 5.73979V7.1512H49.7531V4.70476H49.7061Z" fill="#F5A903"/>
<path d="M54.5047 4.09314V4.70475H55.0222V5.12817H54.5047V6.39844C54.5047 6.63367 54.5988 6.77481 54.8341 6.77481C54.8811 6.77481 54.9752 6.77481 55.0222 6.77481V7.15118C54.9282 7.15118 54.8341 7.19823 54.74 7.19823C54.2224 7.19823 53.9872 7.01004 53.9872 6.53958V5.17522H53.6108V4.7518H53.9872V4.14019H54.5047V4.09314Z" fill="#F5A903"/>
<path d="M55.681 3.76379H56.1515V5.08111H56.1985C56.3397 4.79882 56.622 4.61064 56.9513 4.65768C57.3747 4.61064 57.7511 4.98701 57.7981 5.41043C57.7981 5.45748 57.7981 5.50453 57.7981 5.55157V7.10412H57.3277V5.64567C57.3277 5.26929 57.1395 5.08111 56.8102 5.08111C56.4808 5.03406 56.2456 5.26929 56.1985 5.59862C56.1985 5.64567 56.1985 5.64567 56.1985 5.69271V7.10412H55.7281L55.681 3.76379Z" fill="#F5A903"/>
<path d="M60.5739 6.49254C60.4327 6.96301 60.0093 7.24529 59.5388 7.19824C58.9272 7.19824 58.4097 6.72778 58.4097 6.11617C58.4097 6.06912 58.4097 5.97503 58.4097 5.92798C58.3156 5.31637 58.739 4.75181 59.3506 4.65771C59.3977 4.65771 59.4447 4.65771 59.4918 4.65771C60.1504 4.65771 60.5739 5.12818 60.5739 5.88093V6.06912H58.8331V6.11617C58.7861 6.49254 59.0684 6.77482 59.3977 6.82187H59.4447C59.68 6.86892 59.9152 6.72778 60.0093 6.53959L60.5739 6.49254ZM58.8802 5.69275H60.1034C60.1504 5.36342 59.8681 5.08114 59.5388 5.08114H59.4918C59.1624 5.08114 58.8802 5.36342 58.8802 5.69275Z" fill="#F5A903"/>
</svg>
